# xmcd
#
# Track frame offsets: 
#        150
#        13485
#        26283
#        39771
#        52756
#        65299
#        78117
#        90823
#        106161
#        119696
#        139220
#        158273
#        174219
#        196293
#        212887
#
# Disc length: 3131 seconds
#
# Revision: 0
# Processed by: cddbd v1.5.2PL0 Copyright (c) Steve Scherf et al.
# Submitted via: ExactAudioCopyFreeDBPlugin 1.0
#
DISCID=ab0c390f
DTITLE=Various Artist - The World Of Blues Power! CD 2, 2009
DYEAR=2009
DGENRE=Blues
TTITLE0=Arthur "Big Boy" Crudup - Rock Me Mama (1944)
TTITLE1=Lightnin' Hopkins - Whiskey Headed Woman
TTITLE2=Memphis Minnie - Fashion Plate Daddy
TTITLE3=Robert Lockwood  - Take A Little Walk With Me
TTITLE4=Robert Johnson - Travelin' Riverside Blues
TTITLE5=Brownie McGhee - Goodbye Now
TTITLE6=Charley Patton - High Sheriff Blues
TTITLE7=Eddie James "Son" House, Jr. - Shetland Pony Blues
TTITLE8=Blind Boy Fuller - My Brownskin Legends
TTITLE9=Timo Gross - Here Comes The Blues
TTITLE10=Henrik Freischlader - Get Closer
TTITLE11=John Campbelljohn - Weight Of The World
TTITLE12=Greg Koch - Change Is Gonna Come
TTITLE13=Rudy Rotta Band - Look Out Your Window
TTITLE14=Mark Selby - Nine Pound Hammer
EXTD=
EXTT0=
EXTT1=
EXTT2=
EXTT3=
EXTT4=
EXTT5=
EXTT6=
EXTT7=
EXTT8=
EXTT9=
EXTT10=
EXTT11=
EXTT12=
EXTT13=
EXTT14=
PLAYORDER=
